<?xml version="1.0" encoding="UTF-8" standalone="no"?>
<svg
   width="512"
   height="512"
   viewBox="0 0 512 512"
   fill="none"
   version="1.1"
   id="svg5"
   sodipodi:docname="fileJson.svg"
   inkscape:version="1.3.2 (091e20e, 2023-11-25)"
   xmlns:inkscape="http://www.inkscape.org/namespaces/inkscape"
   xmlns:sodipodi="http://sodipodi.sourceforge.net/DTD/sodipodi-0.dtd"
   xmlns="http://www.w3.org/2000/svg"
   xmlns:svg="http://www.w3.org/2000/svg">
  <defs
     id="defs5" />
  <sodipodi:namedview
     id="namedview5"
     pagecolor="#ffffff"
     bordercolor="#000000"
     borderopacity="0.25"
     inkscape:showpageshadow="2"
     inkscape:pageopacity="0.0"
     inkscape:pagecheckerboard="true"
     inkscape:deskcolor="#d1d1d1"
     inkscape:zoom="1.0956113"
     inkscape:cx="215.86123"
     inkscape:cy="267.88698"
     inkscape:window-width="1392"
     inkscape:window-height="1212"
     inkscape:window-x="1037"
     inkscape:window-y="47"
     inkscape:window-maximized="0"
     inkscape:current-layer="svg5" />
  <g
     id="g5"
     transform="matrix(0.56227685,0,0,0.56227685,76.761603,100.81159)">
    <path
       fill-rule="evenodd"
       clip-rule="evenodd"
       d="M 52,92 C 52,69.92 69.8987,52 92,52 h 72 c 21.217,0 41.566,8.4285 56.569,23.4315 C 235.571,90.4344 244,110.783 244,132 v 40 c 0,10.609 4.214,20.783 11.716,28.284 C 263.217,207.786 273.391,212 284,212 h 40 c 21.217,0 41.566,8.429 56.569,23.431 C 395.571,250.434 404,270.783 404,292 v 13 H 161 c -18.778,0 -34,15.222 -34,34 V 500 H 92 C 69.92,500 52,482.08 52,460 Z m 224.004,40.001 c 0.037,-26.911 -9.653,-52.9289 -27.285,-73.2588 35.697,9.3859 68.26,28.0848 94.36,54.1838 26.099,26.1 44.798,58.663 54.184,94.36 -20.33,-17.632 -46.348,-27.323 -73.259,-27.285 h -40 c -4.416,0 -8,-3.584 -8,-8 z"
       fill="#ffffff"
       id="path1" />
    <path
       d="m 225.273,346.818 h 25.545 l 0.091,91.727 c -0.061,6.303 -1.273,12.061 -3.636,17.273 -2.303,5.152 -5.485,9.606 -9.546,13.364 -4.06,3.757 -8.848,6.666 -14.363,8.727 -5.455,2.061 -11.334,3.091 -17.637,3.091 -6.666,0 -12.727,-0.848 -18.182,-2.545 -5.454,-1.697 -10.121,-4.243 -14,-7.637 -3.939,-3.333 -7,-7.545 -9.181,-12.636 -2.182,-5.091 -3.303,-11.061 -3.364,-17.909 h 25.636 c 0,3.151 0.303,5.909 0.909,8.272 0.607,2.364 1.516,4.364 2.728,6 1.575,2 3.636,3.485 6.182,4.455 2.545,0.97 5.636,1.455 9.272,1.455 2.909,0 5.576,-0.546 8,-1.637 2.425,-1.151 4.485,-2.697 6.182,-4.636 1.697,-1.94 3,-4.243 3.909,-6.909 0.97,-2.728 1.455,-5.637 1.455,-8.728 z"
       fill="#ffffff"
       id="path2" />
    <path
       d="m 343.364,444.636 c 0,-2.363 -0.425,-4.575 -1.273,-6.636 -0.788,-2.061 -2.152,-4 -4.091,-5.818 -2,-1.758 -4.606,-3.364 -7.818,-4.818 -3.152,-1.516 -7.091,-2.909 -11.818,-4.182 -7.334,-2 -13.788,-4.424 -19.364,-7.273 -5.515,-2.848 -10.03,-5.97 -13.545,-9.364 -3.516,-3.393 -6.182,-7.151 -8,-11.272 -1.758,-4.121 -2.637,-8.606 -2.637,-13.455 0,-5.576 1.182,-10.636 3.546,-15.182 2.363,-4.545 5.636,-8.424 9.818,-11.636 4.182,-3.212 9.121,-5.667 14.818,-7.364 5.697,-1.757 11.879,-2.636 18.545,-2.636 6.91,0 13.213,1 18.91,3 5.757,2 10.697,4.788 14.818,8.364 4.121,3.636 7.333,7.939 9.636,12.909 2.303,4.969 3.455,10.424 3.455,16.363 h -24.909 c -0.122,-2.969 -0.667,-5.697 -1.637,-8.181 -0.909,-2.485 -2.273,-4.637 -4.091,-6.455 -1.879,-1.758 -4.212,-3.121 -7,-4.091 -2.727,-1.03 -5.939,-1.545 -9.636,-1.545 -3.394,0 -6.424,0.424 -9.091,1.272 -2.606,0.788 -4.818,1.909 -6.636,3.364 -1.819,1.515 -3.212,3.303 -4.182,5.364 -0.909,2 -1.364,4.181 -1.364,6.545 0,2.485 0.606,4.727 1.818,6.727 1.273,2 3.091,3.788 5.455,5.364 2.364,1.636 5.212,3.121 8.545,4.455 3.394,1.333 7.212,2.575 11.455,3.727 4.545,1.273 8.879,2.818 13,4.636 4.121,1.818 7.909,3.909 11.364,6.273 5.212,3.879 9.363,8.394 12.454,13.545 3.091,5.152 4.636,11.091 4.636,17.819 0,5.818 -1.181,11 -3.545,15.545 -2.303,4.485 -5.515,8.273 -9.636,11.364 -4.122,3.151 -9.031,5.545 -14.728,7.181 -5.697,1.576 -11.909,2.364 -18.636,2.364 -6.606,0 -13.152,-0.97 -19.636,-2.909 -6.425,-2 -12.031,-4.909 -16.819,-8.727 -4.545,-3.758 -8.151,-8.182 -10.818,-13.273 -2.606,-5.091 -3.909,-11.061 -3.909,-17.909 h 25.091 c 0.121,4 0.818,7.424 2.091,10.273 1.273,2.848 3.061,5.181 5.364,7 2.242,1.818 4.939,3.151 8.091,4 3.212,0.848 6.727,1.272 10.545,1.272 3.394,0 6.394,-0.394 9,-1.181 2.667,-0.788 4.909,-1.879 6.727,-3.273 1.818,-1.394 3.212,-3.061 4.182,-5 0.97,-2 1.455,-4.182 1.455,-6.546 z"
       fill="#ffffff"
       id="path3" />
    <path
       d="m 478.818,422.727 c 0,5.697 -0.515,11.121 -1.545,16.273 -1.031,5.091 -2.515,9.818 -4.455,14.182 -2.06,4.363 -4.606,8.363 -7.636,12 -3.031,3.636 -6.485,6.666 -10.364,9.091 -3.515,2.121 -7.394,3.757 -11.636,4.909 -4.182,1.212 -8.697,1.818 -13.546,1.818 -5.151,0 -9.909,-0.667 -14.272,-2 -4.364,-1.333 -8.334,-3.212 -11.909,-5.636 -3.516,-2.546 -6.667,-5.606 -9.455,-9.182 -2.788,-3.637 -5.121,-7.727 -7,-12.273 -1.697,-4.182 -3,-8.727 -3.909,-13.636 -0.849,-4.909 -1.273,-10.091 -1.273,-15.546 v -19.272 c 0,-5.819 0.485,-11.334 1.455,-16.546 1.03,-5.212 2.515,-10.03 4.454,-14.454 1.879,-4.182 4.152,-7.97 6.818,-11.364 2.728,-3.394 5.849,-6.303 9.364,-8.727 3.455,-2.364 7.333,-4.182 11.636,-5.455 4.303,-1.273 8.97,-1.909 14,-1.909 5.091,0 9.849,0.667 14.273,2 4.485,1.273 8.515,3.121 12.091,5.545 3.576,2.303 6.697,5.091 9.364,8.364 2.727,3.273 5.06,6.879 7,10.818 2.121,4.485 3.727,9.394 4.818,14.728 1.151,5.333 1.727,11 1.727,17 z m -25.909,-19.454 c 0,-3.394 -0.182,-6.606 -0.545,-9.637 -0.303,-3.091 -0.819,-5.939 -1.546,-8.545 -0.909,-3.273 -2.121,-6.182 -3.636,-8.727 -1.515,-2.606 -3.303,-4.728 -5.364,-6.364 -1.636,-1.212 -3.485,-2.152 -5.545,-2.818 -2,-0.667 -4.243,-1 -6.728,-1 -2.363,0 -4.515,0.303 -6.454,0.909 -1.879,0.606 -3.576,1.485 -5.091,2.636 -2.061,1.697 -3.818,3.818 -5.273,6.364 -1.394,2.545 -2.485,5.515 -3.272,8.909 -0.607,2.606 -1.061,5.455 -1.364,8.545 -0.243,3.091 -0.364,6.334 -0.364,9.728 v 19.454 c 0,3.212 0.121,6.303 0.364,9.273 0.242,2.97 0.667,5.727 1.273,8.273 0.666,3.212 1.636,6.151 2.909,8.818 1.333,2.606 2.879,4.727 4.636,6.364 1.636,1.454 3.485,2.575 5.546,3.363 2.121,0.788 4.515,1.182 7.181,1.182 2.546,0 4.879,-0.364 7,-1.091 2.122,-0.727 4,-1.788 5.637,-3.182 2.06,-1.697 3.788,-3.818 5.182,-6.363 1.454,-2.606 2.606,-5.546 3.454,-8.819 0.667,-2.545 1.152,-5.333 1.455,-8.363 0.363,-3.03 0.545,-6.182 0.545,-9.455 z"
       fill="#ffffff"
       id="path4" />
    <path
       d="m 585.545,479.182 h -25.454 l -36.818,-85.364 v 85.364 H 497.545 V 346.818 h 25.728 l 36.545,85 0.091,-85 h 25.636 z"
       fill="#ffffff"
       id="path5" />
  </g>
</svg>
